<svg preserveAspectRatio="none" width="100%" height="100%" overflow="visible" style="display: block;" viewBox="0 0 18 16" fill="none" xmlns="http://www.w3.org/2000/svg">
<path id="image 33 (Traced)" fill-rule="evenodd" clip-rule="evenodd" d="M9.14343 3.18005C4.87154 4.92557 1.16345 6.4418 0.903231 6.54963C0.0693777 6.89498 -0.219867 7.38012 0.173407 7.77376C0.363683 7.96418 4.51165 9.37596 4.75029 9.33156C4.82761 9.31711 7.0227 7.88241 9.62822 6.14333C12.2337 4.40425 14.452 2.9629 14.5576 2.94043C14.6632 2.91789 14.7699 2.93444 14.7947 2.9772C14.8194 3.01988 13.1389 4.67929 11.0602 6.66472C8.98148 8.65016 7.22647 10.3287 7.16012 10.3947C7.05876 10.4956 7.01525 10.8717 6.88788 12.7458C6.80452 13.9729 6.75728 14.9991 6.7828 15.0264C6.80839 15.0536 6.9541 15.0268 7.10663 14.9669C7.29325 14.8935 7.74683 14.4878 8.49366 13.7262C9.12533 13.0819 10.1405 13.0158 10.8503 13.5728L11.6051 14.165C12.7061 15.0288 13.746 15.803 13.9159 15.8854C14.2712 16.0577 14.6978 16.0333 14.9102 15.8285C14.9831 15.7582 15.0915 15.5616 15.1512 15.3916C15.3591 14.799 18 1.406 18 0.944364C18 0.542784 17.9787 0.480784 17.761 0.248882C17.5594 0.034127 17.4742 -0.00473561 17.2163 0.000431084C16.9915 0.00492386 14.8541 0.846721 9.14343 3.18005Z" fill="var(--fill-0, #517EF9)"/>
</svg>
