<svg preserveAspectRatio="none" width="100%" height="100%" overflow="visible" style="display: block;" viewBox="0 0 301 651" fill="none" xmlns="http://www.w3.org/2000/svg">
<g id="mask-2">
<path id="Vector" d="M0.00151291 325.886C0.00151291 234.941 -0.0108479 143.996 0.0350938 53.0514C0.0381566 46.7582 0.366129 40.4572 0.790069 34.1765C0.98328 31.3127 1.5379 28.4197 2.3406 25.6601C5.97587 13.1581 14.2387 5.3261 26.7747 2.01154C31.902 0.655871 37.1795 0.269304 42.4495 0.135424C48.9107 -0.0286051 55.3783 0.0559644 61.843 0.0398681C62.523 0.0380796 63.2055 0.0521319 63.8826 0.109363C67.1176 0.383256 69.2598 1.81991 69.4117 5.51798C69.4882 7.38055 69.7598 9.25283 70.1314 11.0822C71.6419 18.5174 77.3626 23.6828 84.9372 24.4447C86.9634 24.6486 89.0142 24.6762 91.0535 24.6767C130.694 24.6897 170.335 24.6892 209.976 24.6795C211.846 24.679 213.723 24.6486 215.585 24.4914C223.506 23.8228 229.169 18.8889 230.918 11.0865C231.288 9.4373 231.473 7.72317 231.529 6.03178C231.673 1.63621 234.125 0.224081 237.654 0.0730827C237.824 0.0659287 237.994 0.0549424 238.164 0.0557089C248.196 0.100676 258.244 -0.388856 268.241 0.888373C269.755 1.08204 271.263 1.36411 272.753 1.69804C287.987 5.11327 297.762 15.629 299.889 31.1239C300.49 35.4985 300.687 39.9357 300.913 44.352C301.07 47.41 300.967 50.4816 300.967 53.5473C300.97 235.096 300.973 416.645 300.966 598.194C300.966 605.173 301.2 612.17 300.026 619.093C299.628 621.438 299.263 623.816 298.551 626.075C294.295 639.577 284.889 647.284 271.166 649.746C266.837 650.523 262.377 650.855 257.974 650.881C236.028 651.012 214.08 650.986 192.133 650.991C145.007 651 97.8805 651.007 50.754 650.986C44.1248 650.983 37.4732 651.212 30.9092 649.942C28.9087 649.555 26.8804 649.218 24.9444 648.606C12.7398 644.743 5.13845 636.479 1.95597 624.127C0.502423 618.485 0.285731 612.682 0.0915 606.895C-0.0228438 603.492 0.0146753 600.084 0.0146753 596.677C0.0113572 506.414 0.0121229 416.15 0.0121229 325.886H0.00151291Z" fill="var(--fill-0, white)"/>
</g>
</svg>
